<?xml version="1.0" encoding="utf-8"?>
<!-- Svg Vector Icons : http://www.onlinewebfonts.com/icon -->
<!DOCTYPE svg PUBLIC "-//W3C//DTD SVG 1.1//EN" "http://www.w3.org/Graphics/SVG/1.1/DTD/svg11.dtd">
<svg version="1.1" xmlns="http://www.w3.org/2000/svg" xmlns:xlink="http://www.w3.org/1999/xlink" x="0px" y="0px" viewBox="0 0 1000 1000" enable-background="new 0 0 1000 1000" xml:space="preserve">
<metadata> Svg Vector Icons : http://www.onlinewebfonts.com/icon </metadata>
<g><path d="M45.8,930.5c-0.4,0-0.8,0-1.2,0C25.4,929.9,10,913.4,10,894c0.1-85.6,27.4-167,78.6-235.2c25-33,54.5-62,88.1-85.6c26.8-19,55.7-34.5,86.1-46.1c-28.3-19.4-52.6-44.8-71-74c-25-39.9-38.1-85.7-38.1-132.7c0-138.2,112.5-250.8,250.8-250.8c138.3,0,250.5,112.4,250.5,250.5c0,43-11.2,85.6-32.4,123c-18.7,33-44.8,61.6-75.9,83.1c29.9,11.6,58.3,27,84.6,45.6c33.7,23.9,63.3,52.8,88.2,85.7c51.5,68.7,78.8,150.3,78.8,236.2c0,9.4-3.8,18.6-10.5,25.3c-6.7,6.7-15.7,10.5-25.3,10.5l0,0c-0.5,0-1,0-1.6,0c-19.1-0.8-34.1-16.8-34.1-36.3c-0.1-85.7-33.7-166.4-94.2-227.3c-58.6-58.8-143.9-94.1-228.3-94.1c-85.2,0-168.5,34.7-228.5,95c-60.8,61-94.3,142-94.3,228C81.5,914.5,65.6,930.5,45.8,930.5z M404.4,140.9c-98.8,0-179.1,80.3-179.1,179.1c0,98.8,80.3,179.1,179.1,179.1c98.8,0,179.1-80.3,179.1-179.1C583.8,221.2,503.3,140.9,404.4,140.9z M954,857.4c-19.7,0-35.8-16-35.8-35.8c0-147.7-112.5-267.9-250.8-267.9c-19.7,0-35.8-16-35.8-35.8s16-35.9,35.8-35.9c75.1,0,136.1-65.8,136.1-146.5c0-80.7-61-146.4-136.1-146.4c-19.7,0-35.8-16-35.8-35.8c0-19.8,16-35.8,35.8-35.8c114.5,0,207.8,97.6,207.8,217.9c0,38.5-9.8,76.2-28.1,109.5c-13.8,24.8-32.4,46.8-53.9,64C846.8,533,893.3,571.8,928,621.9c40.4,58.2,61.8,127.2,62,199.6C989.7,841.5,973.6,857.4,954,857.4z" fill="#ffffff" /></g>
</svg>