<?xml version="1.0" encoding="utf-8"?>
<!-- Svg Vector Icons : http://www.onlinewebfonts.com/icon -->
<!DOCTYPE svg PUBLIC "-//W3C//DTD SVG 1.1//EN" "http://www.w3.org/Graphics/SVG/1.1/DTD/svg11.dtd">
<svg version="1.1" xmlns="http://www.w3.org/2000/svg" xmlns:xlink="http://www.w3.org/1999/xlink" x="0px" y="0px" viewBox="0 0 1000 1000" enable-background="new 0 0 1000 1000" xml:space="preserve">
<metadata> Svg Vector Icons : http://www.onlinewebfonts.com/icon </metadata>
<g><g transform="translate(0.000000,511.000000) scale(0.100000,-0.100000)">
<path d="M3311.2,4988.7c-149.3-68.2-202.6-279.3-104.5-422.2l49.1-74.6l-571.5,117.3l-571.4,117.3l-100.2-51.2c-61.8-32-115.1-78.9-138.6-125.8c-78.9-147.1-29.8-354,100.2-430.7c36.2-21.3,298.5-85.3,584.2-145c556.5-115.1,665.3-145,528.8-147.1c-98.1-2.1-1260.2-330.5-1349.7-381.7c-70.4-40.5-159.9-198.3-159.9-281.5c2.1-91.7,78.9-230.3,153.5-277.2c136.5-83.1,170.6-78.9,788.9,96c530.9,151.4,609.8,168.5,902,194.1c177,14.9,362.5,27.7,413.7,29.8h91.7l-113-100.2c-140.7-127.9-262.3-315.6-319.8-494.7c-40.5-125.8-44.8-185.5-42.6-577.9c2.1-240.9,12.8-592.8,21.3-782.6c14.9-322,19.2-349.7,72.5-428.6c68.2-104.5,204.7-174.8,339-174.8h98.1l78.9,198.3c42.6,106.6,83.2,200.4,89.6,206.8c6.4,6.4,6.4-83.1,0-196.2c-12.8-198.3-10.7-211.1,34.1-238.8c70.4-46.9,213.2-64,298.5-36.3c96,32,1204.8,652.5,1262.3,705.8c23.5,21.3,296.4,147.1,607.7,277.2c626.9,264.4,788.9,351.8,1100.3,597l215.4,168.5l-157.8,942.5c-85.3,518.1-159.9,946.7-166.3,953.1c-4.3,4.3-328.4,27.7-718.6,49.1c-980.8,53.3-955.3,49-1490.5,179.1c-388.1,93.8-582.1,153.5-1042.7,328.4c-311.3,119.4-599.2,221.7-639.7,226C3411.5,5014.3,3349.6,5005.8,3311.2,4988.7z M5110.9,2747.7c115.1-57.6,206.8-166.3,240.9-290c38.4-130.1,25.6-322-25.6-424.3c-46.9-89.6-76.8-108.7-539.5-366.8l-490.4-272.9l-14.9,100.2c-25.6,189.8-19.2,865.7,10.7,923.3c34.1,68.2,275.1,262.3,407.3,330.5C4840.1,2818,4968,2818,5110.9,2747.7z" fill="#ffffff"/><path d="M8083.3,4664.6c-262.3-44.8-426.5-83.2-447.8-102.3c-17.1-19.2-29.8-64-29.8-102.4c2.1-64,353.9-2228.2,379.6-2334.9c6.4-27.7,34.1-64,61.8-81c46.9-29.8,85.3-27.7,498.9,42.6c505.4,83.2,509.6,85.3,539.5,142.9c34.1,64-356.1,2418-411.5,2473.5C8622.8,4754.1,8578,4749.9,8083.3,4664.6z M8560.9,2775.4c61.8-27.7,117.3-117.3,117.3-185.5c0-23.5-25.6-70.4-55.4-106.6c-153.5-183.4-430.7,34.1-294.3,228.1C8386.1,2794.6,8471.4,2818,8560.9,2775.4z" fill="#ffffff"/><path d="M3752.6,387.2c-121.5-64-174.9-138.6-185.5-266.5c-34.1-336.9,354-518.2,590.6-277.2c132.2,134.3,130.1,349.7-8.5,479.8C4025.6,444.8,3904,464,3752.6,387.2z"/><path d="M3390.1-401.8c-53.3-27.7-110.9-76.7-130.1-113c-36.2-64-232.4-1228.2-232.4-1377.5c0-93.8,53.3-147.1,145-147.1c96,0,119.4,46.9,206.8,426.5c42.6,181.3,81,332.6,89.6,339c12.8,14.9-4.3-507.5-46.9-1413.7c-34.1-673.8-29.9-707.9,76.8-746.3c87.4-29.8,166.3,0,200.4,78.9c14.9,38.4,61.8,328.4,106.6,644c42.6,317.7,85.3,594.9,93.8,616.2c8.5,23.4,46.9-196.2,96-543.7c44.8-322,89.6-620.5,100.2-663.2c36.2-140.7,162.1-185.5,266.5-95.9l57.6,51.2l-34.1,840.1c-21.3,462.7-42.6,923.3-49,1027.7c-6.4,102.4-4.3,185.5,4.3,185.5c10.7,0,51.2-140.7,91.7-315.6c40.5-172.7,81-334.8,93.8-362.5c40.5-89.6,211.1-87.4,251.6,4.3c17.1,38.4,0,194-74.6,675.9c-123.7,782.5-113,733.5-177,810.3c-106.6,125.8-266.5,157.8-415.8,81c-115.1-59.7-277.2-59.7-409.4,0C3569.2-342,3507.4-342,3390.1-401.8z" fill="#ffffff"/><path d="M1639.5-949.7c-200.4-108.8-238.8-383.8-74.6-548c226-226,588.5-72.5,588.5,253.7c0,104.5-55.4,204.7-153.5,277.2C1916.7-905,1737.6-896.4,1639.5-949.7z" fill="#ffffff" /><path d="M5846.5-945.5c-132.2-64-215.4-230.3-187.7-379.5c21.3-106.6,145-238.8,251.6-268.7c317.7-85.3,569.3,285.7,368.9,548C6179.2-915.6,5995.8-870.9,5846.5-945.5z" fill="#ffffff"/><path d="M7931.9-954c-115.1-68.3-157.8-138.6-166.3-285.7c-6.4-106.6,0-140.7,42.6-202.6c53.3-81,206.8-170.6,294.3-170.6c85.3,0,240.9,89.6,292.1,168.5c36.3,51.2,49,104.5,49,183.4C8443.7-992.4,8157.9-821.8,7931.9-954z" fill="#ffffff"/><path d="M1362.3-1711c-125.8-38.4-202.6-110.9-230.3-213.2c-10.7-46.9-66.1-364.6-119.4-710l-100.2-626.9l42.6-55.5c55.4-76.7,155.7-85.3,211.1-17.1c21.3,29.9,70.4,185.5,110.9,368.9c40.5,174.8,81,328.4,93.8,339c10.7,12.8,14.9-66.1,6.4-213.2c-55.4-1038.4-81-1808.2-57.6-1857.2c46.9-102.4,209-115.2,270.8-19.2c19.2,27.7,68.2,309.2,123.7,695.1c68.2,471.3,96,626.9,106.6,573.6c8.5-40.5,51.2-339,98.1-661c78.9-556.5,85.3-588.5,138.6-635.4c61.8-53.3,91.7-57.6,166.3-23.5c100.2,44.8,102.4,81,70.4,771.9c-49,987.2-61.8,1392.4-49,1377.5c8.5-6.4,51.2-168.5,98.1-360.4c57.6-238.8,96-358.2,121.5-377.4c96-70.4,232.4,4.3,228.1,123.7c-4.3,87.4-194,1281.5-213.2,1334.8c-27.7,78.9-123.7,157.8-232.4,189.8c-106.6,29.8-115.1,29.8-202.6-17.1c-142.9-74.6-313.4-76.8-452-8.5c-64,29.8-119.4,55.4-123.7,53.3C1464.7-1679,1415.6-1693.9,1362.3-1711z" fill="#ffffff" /><path d="M5586.4-1696c-98.1-29.9-191.9-87.4-223.9-138.6c-32-46.9-245.2-1283.6-245.2-1411.6c0-66.1,70.4-136.5,136.5-136.5c106.6,0,136.5,55.4,221.8,424.3c44.8,191.9,87.4,336.9,93.8,319.9c6.4-17.1-2.1-302.8-17.1-637.6c-14.9-334.8-34.1-791.1-42.6-1015l-14.9-405.1l61.8-49.1c70.3-55.4,168.4-49,223.9,17.1c23.4,27.7,61.8,241,125.8,693c51.2,358.2,96,650.4,98.1,646.1c4.2-4.3,46.9-285.7,93.8-624.8c46.9-339,96-641.8,108.7-671.7c21.3-55.4,96-104.5,157.8-104.5c17.1,0,55.4,23.4,87.4,51.2c57.6,46.9,59.7,53.3,53.3,260.1c-2.1,115.2-17.1,503.2-34.1,861.5c-17.1,358.2-32,731.4-29.9,831.6l2.1,181.3l89.6-360.4c93.8-373.2,115.1-417.9,219.6-417.9c66.1,0,134.3,72.5,134.3,142.9c0,106.6-196.2,1294.3-223.9,1364.7c-32,76.8-127.9,145-251.6,179.1c-70.4,19.2-95.9,14.9-191.9-32c-145-74.6-290-74.6-432.9-2.1C5673.8-1672.6,5667.4-1672.6,5586.4-1696z" fill="#ffffff"/><path d="M7656.8-1708.8c-89.5-27.7-181.2-95.9-215.4-162c-10.7-19.2-68.2-339-127.9-714.3c-106.6-671.7-106.6-680.2-68.2-733.5c23.5-32,66.1-55.4,102.3-59.7c106.6-10.7,145,57.6,221.8,400.9c121.6,545.9,119.4,575.7,51.2-944.6c-38.4-825.2-38.4-827.3,98.1-857.2c85.3-19.2,159.9,29.9,187.6,121.5c12.8,38.4,59.7,332.6,104.5,652.5c42.6,317.7,85.3,580,91.7,580c6.4,0,49-266.5,96-590.6c44.8-326.2,87.4-616.2,95.9-644c21.3-81,108.7-136.5,189.8-119.4c136.4,29.9,136.4,32,100.2,835.9c-53.3,1153.6-59.7,1341.2-38.4,1307.1c10.7-17.1,51.2-170.6,89.6-341.2c76.7-343.3,115.1-411.5,221.8-400.9c36.2,4.3,78.9,27.7,102.3,59.7c38.4,53.3,38.4,64-68.2,725c-57.6,368.9-106.6,678.1-106.6,686.6s-29.9,49-66.1,91.7c-44.8,51.2-102.4,85.3-179.1,106.6c-108.7,32-115.1,32-213.2-21.3c-140.7-72.5-307.1-72.5-445.7,0C7765.6-1668.3,7780.5-1670.5,7656.8-1708.8z" fill="#ffffff" /></g></g>
</svg>