<?xml version="1.0" encoding="utf-8"?>
<!-- Svg Vector Icons : http://www.onlinewebfonts.com/icon -->
<!DOCTYPE svg PUBLIC "-//W3C//DTD SVG 1.1//EN" "http://www.w3.org/Graphics/SVG/1.1/DTD/svg11.dtd">
<svg version="1.1" xmlns="http://www.w3.org/2000/svg" xmlns:xlink="http://www.w3.org/1999/xlink" x="0px" y="0px" viewBox="0 0 1000 1000" enable-background="new 0 0 1000 1000" xml:space="preserve">
<metadata> Svg Vector Icons : http://www.onlinewebfonts.com/icon </metadata>
<g><path d="M266.7,293.4c24.7,75,93.3,74.8,117.9,0c8.1-4.3,16.5-16.9,17.8-27.4c1.4-11,0.6-25.5-10.4-25.5c-2.4-35.1-21.7-64.9-65.4-64.9c-42.7,0-64.5,25.8-67.2,64.9c-11,0-11.9,14.6-10.4,25.5C250.3,276.5,258.6,289.2,266.7,293.4L266.7,293.4z" fill="#ffffff"/>
<path d="M425.1,723.4v-26.1c28.6,0,51.8-23.3,51.8-52v-1.7l201.7-202c5.5-5.5,5.5-14.3,0-19.7c-5.4-5.5-14.3-5.5-19.7,0L477,604.1V432c0-37.4-27.2-69.8-65.4-77.8l-27.9-5.8l-58.1,115.8l-58.1-115.8l-27.8,5.8c-38.1,8-65.3,40.4-65.3,77.8v213.3c0,28.7,23.2,52,51.8,52v26.1H425.1L425.1,723.4z" fill="#ffffff"/>
<path d="M10,543.7c0,79.6,64.7,144.4,144.2,144.4h1.7c-7.6-12.5-12.2-27.1-12.2-42.8v-19.8c-40.6-5.3-72.2-39.7-72.2-81.8V151.1c0-45.7,37.1-82.9,82.7-82.9h688.3c45.6,0,82.7,37.2,82.7,82.9v392.6c0,45.7-37.1,82.9-82.7,82.9H537.4l-30.8,30.8c-1.8,11.3-6.3,21.5-11.9,30.7h347.8c79.5,0,144.2-64.8,144.2-144.4V151.1C986.7,71.5,922,6.7,842.5,6.7H154.2C74.7,6.7,10,71.5,10,151.1V543.7L10,543.7z" fill="#ffffff"/>
<path d="M211.9,774H104.4C52.2,774,10,816.4,10,868.5v124.8h296.3V868.5C306.3,816.4,264,774,211.9,774L211.9,774z" fill="#ffffff" />
<path d="M553.8,774H446.2c-52.1,0-94.4,42.3-94.4,94.5v124.8h296.3V868.5C648.1,816.4,605.9,774,553.8,774L553.8,774z" fill="#ffffff" />
<path d="M895.6,774H788.1c-52.1,0-94.4,42.3-94.4,94.5v124.8H990V868.5C990,816.4,947.7,774,895.6,774L895.6,774z" fill="#ffffff"/></g>
</svg>